<?xml version="1.0" standalone="no"?>
<svg viewBox="0 0 200 200" xmlns="http://www.w3.org/2000/svg">
  <path fill="#013E37" d="M39.4,-59.5C49.6,-54.7,55.5,-41.4,58.3,-28.6C61.1,-15.8,60.8,-3.6,62.2,11.2C63.7,26,66.8,43.3,61,56.2C55.1,69,40.1,77.4,26.1,75.3C12,73.3,-1.1,60.9,-11.5,51.9C-21.8,43,-29.4,37.5,-40.5,31.4C-51.6,25.2,-66.2,18.4,-74.5,6.5C-82.9,-5.5,-84.9,-22.6,-79,-36.3C-73.1,-50,-59.2,-60.2,-44.7,-63.1C-30.2,-66,-15.1,-61.4,-0.3,-61C14.6,-60.6,29.1,-64.3,39.4,-59.5Z" transform="translate(100 100)" />
</svg>
